<?xml version="1.0" encoding="utf-8"?>
<!-- Generator: Adobe Illustrator 17.1.0, SVG Export Plug-In . SVG Version: 6.00 Build 0)  -->
<!DOCTYPE svg PUBLIC "-//W3C//DTD SVG 1.1//EN" "http://www.w3.org/Graphics/SVG/1.1/DTD/svg11.dtd">
<svg version="1.1" id="Layer_1" xmlns="http://www.w3.org/2000/svg" xmlns:xlink="http://www.w3.org/1999/xlink" x="0px" y="0px"
	 viewBox="0 0 98.2 16.1" enable-background="new 0 0 98.2 16.1" xml:space="preserve">
<g>
	<path d="M10.4,14.3L4.6,6.6v7.8h-3V1.7h2.8l5.8,7.8V1.7h3v12.6H10.4z"/>
	<path d="M19,4.3v2.5h6v2.5h-6v2.5h6.9v2.5H15.8V1.7h9.9v2.5H19z"/>
	<path d="M38.8,14.3l-2.3-8.7l-2.4,8.7h-3.3L26.6,1.7h3.4l2.5,9.3l2.4-9.3h3.1l2.5,9.3L43,1.7h3.3l-4.2,12.6H38.8z"/>
	<path d="M62.5,3.8L60.7,6c-0.8-1-2.1-1.6-3.2-1.6c-2,0-3.5,1.6-3.5,3.7c0,2.1,1.5,3.7,3.5,3.7c1.1,0,2.3-0.6,3.2-1.5l1.9,2
		c-1.4,1.4-3.3,2.3-5.2,2.3c-3.8,0-6.6-2.8-6.6-6.5c0-3.6,2.9-6.4,6.7-6.4C59.3,1.6,61.3,2.5,62.5,3.8z"/>
	<path d="M75.4,9.1c0,3.3-2.2,5.4-5.7,5.4c-3.5,0-5.8-2.1-5.8-5.4V1.7H67v7.3c0,1.7,1.1,2.8,2.6,2.8c1.5,0,2.5-1,2.5-2.8V1.7h3.2
		V9.1z"/>
	<path d="M86.2,11.7v2.7h-8.6V1.7h3.2v9.9H86.2z"/>
	<path d="M93.6,4.3v10h-3.2v-10h-3.8V1.7h10.8v2.6H93.6z"/>
</g>
</svg>
