<?xml version="1.0" encoding="UTF-8" standalone="no"?>
<svg width="35px" height="35px" viewBox="0 0 35 35" version="1.1" xmlns="http://www.w3.org/2000/svg" xmlns:xlink="http://www.w3.org/1999/xlink" >
    <path d="M34.1464466,34.8535534 C34.3417088,35.0488155 34.6582912,35.0488155 34.8535534,34.8535534 C35.0488155,34.6582912 35.0488155,34.3417088 34.8535534,34.1464466 L0.853553391,0.146446609 C0.658291245,-0.0488155365 0.341708755,-0.0488155365 0.146446609,0.146446609 C-0.0488155365,0.341708755 -0.0488155365,0.658291245 0.146446609,0.853553391 L34.1464466,34.8535534 Z"></path>
    <path d="M0.146446609,34.1464466 C-0.0488155365,34.3417088 -0.0488155365,34.6582912 0.146446609,34.8535534 C0.341708755,35.0488155 0.658291245,35.0488155 0.853553391,34.8535534 L34.8535534,0.853553391 C35.0488155,0.658291245 35.0488155,0.341708755 34.8535534,0.146446609 C34.6582912,-0.0488155365 34.3417088,-0.0488155365 34.1464466,0.146446609 L0.146446609,34.1464466 Z"></path>
</svg>