<?xml version="1.0" encoding="UTF-8" standalone="no"?>
<svg width="35px" height="35px" viewBox="0 0 35 35" version="1.1" xmlns="http://www.w3.org/2000/svg" xmlns:xlink="http://www.w3.org/1999/xlink" xmlns:sketch="http://www.bohemiancoding.com/sketch/ns">
    <!-- Generator: Sketch 3.2.2 (9983) - http://www.bohemiancoding.com/sketch -->
    <title>acros</title>
    <desc>Created with Sketch.</desc>
    <defs></defs>
    <g id="Page-1" stroke="none" stroke-width="1" fill="none" fill-rule="evenodd" sketch:type="MSPage">
        <g id="acros" sketch:type="MSLayerGroup" transform="translate(-1.000000, -1.000000)" fill="#000000">
            <path d="M35.1464466,35.8535534 C35.3417088,36.0488155 35.6582912,36.0488155 35.8535534,35.8535534 C36.0488155,35.6582912 36.0488155,35.3417088 35.8535534,35.1464466 L1.85355339,1.14644661 C1.65829124,0.951184464 1.34170876,0.951184464 1.14644661,1.14644661 C0.951184464,1.34170876 0.951184464,1.65829124 1.14644661,1.85355339 L35.1464466,35.8535534 Z" id="Line" sketch:type="MSShapeGroup"></path>
            <path d="M1.14644661,35.1464466 C0.951184464,35.3417088 0.951184464,35.6582912 1.14644661,35.8535534 C1.34170876,36.0488155 1.65829124,36.0488155 1.85355339,35.8535534 L35.8535534,1.85355339 C36.0488155,1.65829124 36.0488155,1.34170876 35.8535534,1.14644661 C35.6582912,0.951184464 35.3417088,0.951184464 35.1464466,1.14644661 L1.14644661,35.1464466 Z" id="Line-2" sketch:type="MSShapeGroup"></path>
        </g>
    </g>
</svg>